<?xml version="1.0" encoding="iso-8859-1"?>
<!-- Generator: Adobe Illustrator 16.0.4, SVG Export Plug-In . SVG Version: 6.00 Build 0)  -->
<!DOCTYPE svg PUBLIC "-//W3C//DTD SVG 1.1//EN" "http://www.w3.org/Graphics/SVG/1.1/DTD/svg11.dtd">
<svg version="1.1" id="Layer_1" xmlns="http://www.w3.org/2000/svg" xmlns:xlink="http://www.w3.org/1999/xlink" x="0px" y="0px"
	 width="80px" height="80px" viewBox="0 0 80 80" style="enable-background:new 0 0 80 80;" xml:space="preserve">
<rect style="fill:none;" width="80" height="80"/>
<path style="fill:#CCCCCC;" d="M4.207,69.657c0.411-0.307,1.592-1.332,1.592-1.332s0.564-0.463,0.461,0.307
	c-0.103,0.77-0.77,4.105-0.77,5.183c0,1.079-0.154,3.028,0.616,3.028s0.873-1.282,0.821-1.896c-0.052-0.617,0.103-2.927,0.256-3.439
	c0.154-0.515,0.719-0.515,0.719,0.103c0,0.615-0.103,4.978-0.103,4.978s-0.103,1.488,0.616,1.488c0.719,0,0.667-0.719,0.667-1.129
	c0-0.411-0.052-4.158-0.052-4.158s0.052-1.437,0.358-1.334C9.698,71.557,9.8,71.763,9.8,72.533s0.051,3.746,0.051,3.899
	c0,0.154,0.001,1.128,0.668,1.128c0.667,0,0.462-0.666,0.462-1.025c0-0.358-0.103-3.028-0.103-3.028s-0.051-2.412,0.103-2.412
	s0.667-0.41,0.616,0.359c0.052,1.334,0.154,2.516,0.205,2.668c0.052,0.154,0.052,1.182,0.616,1.182c0.564,0,0.462-1.129,0.308-1.591
	c-0.102-1.488-0.145-3.159,0.052-3.798c0.205-0.668,0.514-1.795,0.565-2.771c0.153-2.413-0.205-3.594,0.102-4.209
	c0.308-0.615,0.667-1.385,1.232-2.616c0.564-1.231,3.387-6.879,3.797-8.468c0.411-1.593,4.055-9.496,4.055-11.703
	c0-2.206,0.359-3.848,0.563-4.927c0.207-1.078,0.976-4.208,1.13-5.183c0.154-0.412,0.615,0.821,0.77,1.642
	c0.154,0.82,1.231,3.079,0.154,10.417c-0.719,4.056-0.514,7.084-0.771,8.572c-0.256,1.487-1.129,4.618-1.488,6.671
	c-0.359,2.053-0.565,4.158-0.77,7.852c0,0-0.051,6.622,0.308,10.42c0.105,1.114,0.305,2.69,0.534,4.388h12.197
	c0.059-0.367,0.112-0.701,0.15-0.95c0.308-2.002,1.988-10.111,2.04-10.521c0.354,0.242,1.301,0.48,2.6-0.011
	c0.359,2.104,1.365,8.941,1.365,9.146c0,0,0.207,0.988,0.477,2.337h12.192c0.564-4.522,1.139-10.385,0.88-12.807
	c-0.171-5.627-0.704-9.396-1.146-11.622c-0.003-0.003-0.003-0.007-0.004-0.011c0.394-0.053,0.783-0.365,0.997-0.508
	c0.36-0.238,2.102-1.859,4.141-2.759c2.041-0.901,2.34-2.971,2.34-2.971c3.69-4.411,5.672-8.282,7.292-11.882
	c1.498-3.328,2.301-5.918,2.251-7.202c-0.053-1.284-2.963-6.458-4.951-9.993c-2.431-4.319-5.009-9.663-7.111-11.611
	c-2.105-1.951-3.013-2.793-4.862-3.511c-1.846-0.72-8.953-0.901-9.672-2.75C43.836,1.607,43.737,0.749,43.719,0H33.292
	c-0.039,0.951-0.193,2.083-0.654,2.812c-0.924,1.463-7.159,3.541-10.392,5.081c-3.234,1.541-5.082,3.542-5.082,9.931
	c0,6.39-0.924,15.782-1.001,16.475c-0.076,0.692-0.539,2.387-1.616,4.311s-1.309,5.234-1.462,6.621
	c-0.155,1.385-1.078,7.544-1.694,9.905c-0.746,2.858-1.891,5.669-2.052,6.209c-0.309,1.026-0.565,1.592-1.129,2.105
	c0,0-2.001,1.847-2.567,2.411c-0.564,0.564-2.104,2.927-2.411,3.131c-0.309,0.205-1.18,0.565-0.77,0.924
	C2.873,70.273,3.796,69.966,4.207,69.657z M52.445,49.229c-0.005-0.076-0.015-0.231-0.03-0.445
	C52.756,48.7,52.678,48.922,52.445,49.229z M55.608,52.248c-0.217,0.262-1.081,1.126-1.081,1.126s-0.626,0.46-1.092,0.941
	c-0.08-0.326-0.151-0.589-0.211-0.789c0.944-0.862,2.034-1.823,2.324-1.954C56.089,51.334,55.826,51.985,55.608,52.248z
	 M51.372,35.376c0.102-1.335,0.722-2.349,1.13-4.568c0.407-2.219,0.526-3.78,0.646-4.919c0.202-1.925,0.721-5.521,1.08-5.641
	c0.361-0.121,2.461-0.301,3.78,2.1c1.322,3.36,5.222,8.462,5.222,8.462c0.419,1.2,0.841,0.72-0.42,3.36
	c-1.261,2.641-1.681,3.541-4.62,10.081c-1.08,1.382-2.28,2.221-2.28,2.221s-0.66,0-2.521,0.181c-0.36,0.035-0.739,0.133-1.119,0.267
	c0-0.002,0-0.004,0-0.008c-0.129-1.521-0.321-3.408-0.539-4.504C51.319,40.353,51.27,36.71,51.372,35.376z"/>
<path d="M60.074,52.949c-0.319,0-0.642-0.102-0.914-0.312c-0.656-0.506-0.778-1.447-0.273-2.104
	c5.924-7.689,10.359-17.607,10.345-20.286c-0.01-1.781-1.02-3.417-3.032-6.678c-1.159-1.877-2.602-4.213-4.336-7.364
	c-4.454-8.094-8.06-9.461-8.096-9.474C53,6.457,52.577,5.613,52.836,4.839c0.259-0.773,1.071-1.2,1.853-0.962
	c0.471,0.146,4.748,1.696,9.804,10.883c1.698,3.085,3.118,5.386,4.26,7.235c2.234,3.62,3.465,5.614,3.479,8.237
	c0.022,4.03-5.309,14.787-10.968,22.133C60.968,52.748,60.523,52.949,60.074,52.949z"/>
<g>
</g>
<g>
</g>
<g>
</g>
<g>
</g>
<g>
</g>
<g>
</g>
<g>
</g>
<g>
</g>
<g>
</g>
<g>
</g>
<g>
</g>
<g>
</g>
<g>
</g>
<g>
</g>
<g>
</g>
</svg>
