<?xml version="1.0" encoding="iso-8859-1"?>
<!-- Generator: Adobe Illustrator 16.0.4, SVG Export Plug-In . SVG Version: 6.00 Build 0)  -->
<!DOCTYPE svg PUBLIC "-//W3C//DTD SVG 1.1//EN" "http://www.w3.org/Graphics/SVG/1.1/DTD/svg11.dtd">
<svg version="1.1" id="Layer_1" xmlns="http://www.w3.org/2000/svg" xmlns:xlink="http://www.w3.org/1999/xlink" x="0px" y="0px"
	 width="80px" height="80px" viewBox="0 0 80 80" style="enable-background:new 0 0 80 80;" xml:space="preserve">
<path style="fill:#CCCCCC;" d="M76.527,72.075c-2.431-5.056-2.353-6.476-2.431-8.452c-0.078-1.974-1.726-12.792-1.647-19.031
	c0.079-6.24,0.156-13.111-3.057-16.111c-3.216-3.001-6.589-4.029-9.412-5.134c-2.823-1.107-10.35-3.947-11.448-6.793
	C47.434,13.712,48.061,10,48.061,10l-16.156,0.237c0,0,0.471,4.739-0.941,6.99c-1.411,2.251-10.939,5.449-15.881,7.817
	c-4.94,2.37-7.763,5.45-7.763,15.282c0,9.832-1.413,24.283-1.531,25.351c-0.117,1.065-0.824,3.673-2.469,6.634
	C2.153,74.408,1.637,77.572,1.351,80h12.806c0.79-2.263,1.359-4.238,1.359-5.32c0-3.396,0.548-5.922,0.862-7.581
	c0.314-1.66,1.49-6.475,1.725-7.976c0.236-0.632,0.941,1.264,1.178,2.526c0.233,1.262,1.881,4.739,0.233,16.032
	c-0.141,0.803-0.253,1.57-0.353,2.318h41.27c-0.093-0.692-0.19-1.328-0.293-1.844c-0.627-3.16-0.705-8.767-0.55-10.82
	c0.157-2.054,1.256-5.845,1.727-7.027c0.471-1.186,0.392,1.105,0.549,1.814c0.156,0.712,1.254,5.213,1.726,6.792
	c0.469,1.58,0.646,5.146,0.862,6.87c0.257,2.05,0.674,3.217,1.124,4.215h13.074C78.28,77.126,77.804,74.729,76.527,72.075z"/>
<rect style="fill:none;" width="80" height="80"/>
<path d="M13.948,26.255c-0.539,0-1.06-0.292-1.329-0.801c-0.386-0.733-0.105-1.64,0.628-2.026c0.358-0.188,8.965-4.615,26.789-4.615
	c17.859,0,25.677,4.458,26.001,4.647c0.715,0.418,0.955,1.337,0.536,2.052c-0.418,0.716-1.337,0.955-2.052,0.537
	c-0.069-0.04-7.555-4.236-24.486-4.236c-17.089,0-25.309,4.226-25.39,4.269C14.422,26.199,14.183,26.255,13.948,26.255z"/>
<g>
</g>
<g>
</g>
<g>
</g>
<g>
</g>
<g>
</g>
<g>
</g>
<g>
</g>
<g>
</g>
<g>
</g>
<g>
</g>
<g>
</g>
<g>
</g>
<g>
</g>
<g>
</g>
<g>
</g>
</svg>
