<?xml version="1.0" encoding="iso-8859-1"?>
<!-- Generator: Adobe Illustrator 16.0.4, SVG Export Plug-In . SVG Version: 6.00 Build 0)  -->
<!DOCTYPE svg PUBLIC "-//W3C//DTD SVG 1.1//EN" "http://www.w3.org/Graphics/SVG/1.1/DTD/svg11.dtd">
<svg version="1.1" id="Layer_1" xmlns="http://www.w3.org/2000/svg" xmlns:xlink="http://www.w3.org/1999/xlink" x="0px" y="0px"
	 width="80px" height="80px" viewBox="0 0 80 80" style="enable-background:new 0 0 80 80;" xml:space="preserve">
<rect style="fill:none;" width="80" height="80"/>
<path style="fill:#CCCCCC;" d="M26.454,80c3.757-7.138,8.589-17.566,10-20.381c1.95-3.886,3.155-6.331,4.081-8.335
	c0.923-2.008,4.599-3.479,10.327-8.704c2.339-2.085,4.544-5.12,5.802-6.974c1.204-1.775,5.471-5.02,9.402-7.751
	c1.464-0.539,4.499-2.551,3.364-3.965c-1.132-1.412-3.703,0.649-4.192,0.831c-0.487,0.18-3.648,2.292-7.092,4.842
	c-1.82,1.675-1.826-0.435-2.134-0.819c-0.31-0.385,5.833-5.099,5.833-5.099s6.885-5.099,7.782-5.819
	c0.902-0.722,2.982-1.545,1.643-3.216c-1.339-1.67-3.777,0.286-4.165,0.597c-0.384,0.307-7.938,6.152-9.864,7.698
	c-1.926,1.544-2.648,1.7-3.522,1.135c-0.873-0.565,2.619-3.579,2.619-3.579s9.479-7.389,10.506-8.212
	c1.028-0.824,2.931-2.137,1.488-3.938c-1.441-1.796-4.961,1.445-4.961,1.445S52.66,18.77,51.118,20.006
	c-1.541,1.235-2.674-0.178-1.7-1.593c0.976-1.416,6.273-6.517,7.782-7.81c1.945-1.667,4.959-3.673,3.414-5.599
	c-1.544-1.928-5.807,3.124-8.505,5.288c-2.696,2.163-10.015,9.773-11.736,11.577c-1.721,1.802-1.699-0.539-1.699-0.539
	s0.202-5.016,0.146-6.66c-0.051-1.643-1.135-4.575-2.859-4.881c-1.723-0.308-0.872,2.599-0.765,3.78
	c0.103,1.181-2.715,9.773-2.995,12.318c-0.283,2.545-0.887,11.264-0.887,11.264c-0.153,2.441-1.051,4.217-3.003,7.049
	c-1.027,1.488-5.762,9.995-11.42,17.597C13.712,66.07,6.422,74.226,1.089,80H26.454z"/>
<g>
	<path style="fill:none;" d="M28.602,43.776c0,0,0.097-0.143,0.249-0.374c-0.203,0.142-0.36,0.305-0.452,0.493
		c-0.291,0.598-0.025,1.566,0.71,2.592c0.937,1.306,2.535,2.57,4.385,3.47c1.742,0.848,3.562,1.314,5.123,1.314
		c1.428,0,2.472-0.392,2.791-1.049c0.015-0.031,0.012-0.075,0.023-0.108c-0.082,0.07-0.149,0.131-0.182,0.166
		C40.875,50.688,28.602,43.776,28.602,43.776z"/>
	<path d="M41.431,50.114c-0.012,0.033-0.009,0.077-0.023,0.108c-0.319,0.657-1.363,1.049-2.791,1.049
		c-1.562,0-3.381-0.467-5.123-1.314c-1.85-0.899-3.448-2.164-4.385-3.47c-0.735-1.025-1-1.994-0.71-2.592
		c0.092-0.188,0.249-0.352,0.452-0.493c0.454-0.696,1.417-2.242,1.918-3.534c-2.429,0.103-4.268,1.072-5.068,2.715
		c-0.804,1.653-0.459,3.661,0.97,5.653c1.236,1.723,3.193,3.292,5.51,4.418c2.143,1.043,4.428,1.617,6.436,1.617
		c2.643,0,4.643-0.997,5.488-2.736c0.537-1.104,0.544-2.345,0.12-3.601C43.183,48.725,41.917,49.697,41.431,50.114z"/>
	<path style="fill:#999999;" d="M31.19,42.848c1.562,0,3.381,0.467,5.123,1.313c3.926,1.91,5.579,4.692,5.118,5.953
		c0.486-0.417,1.752-1.39,2.794-2.18c-0.802-2.374-3.169-4.803-6.6-6.471c-2.143-1.042-4.428-1.616-6.435-1.616
		c-0.145,0-0.28,0.014-0.421,0.021c-0.501,1.292-1.465,2.838-1.918,3.534C29.354,43.05,30.171,42.848,31.19,42.848z"/>
</g>
<g>
</g>
<g>
</g>
<g>
</g>
<g>
</g>
<g>
</g>
<g>
</g>
<g>
</g>
<g>
</g>
<g>
</g>
<g>
</g>
<g>
</g>
<g>
</g>
<g>
</g>
<g>
</g>
<g>
</g>
</svg>
