<?xml version="1.0" encoding="iso-8859-1"?>
<!-- Generator: Adobe Illustrator 16.0.4, SVG Export Plug-In . SVG Version: 6.00 Build 0)  -->
<!DOCTYPE svg PUBLIC "-//W3C//DTD SVG 1.1//EN" "http://www.w3.org/Graphics/SVG/1.1/DTD/svg11.dtd">
<svg version="1.1" id="Layer_1" xmlns="http://www.w3.org/2000/svg" xmlns:xlink="http://www.w3.org/1999/xlink" x="0px" y="0px"
	 width="80px" height="80px" viewBox="0 0 80 80" style="enable-background:new 0 0 80 80;" xml:space="preserve">
<rect style="fill:none;" width="80" height="80"/>
<g>
	<path style="fill:#D9D9D9;" d="M14.116,12.352c0.366-0.274,1.42-1.19,1.42-1.19s0.504-0.414,0.412,0.274
		c-0.092,0.687-0.687,3.664-0.687,4.626c0,0.962-0.138,2.703,0.549,2.703c0.688,0,0.779-1.145,0.733-1.695
		c-0.046-0.55,0.091-2.611,0.229-3.069c0.137-0.458,0.641-0.458,0.641,0.091c0,0.55-0.092,4.443-0.092,4.443
		s-0.091,1.329,0.55,1.329c0.641,0,0.596-0.642,0.596-1.008c0-0.366-0.046-3.71-0.046-3.71s0.046-1.282,0.32-1.191
		c0.275,0.092,0.367,0.276,0.367,0.962c0,0.688,0.045,3.344,0.045,3.481s0.001,1.007,0.596,1.007c0.596,0,0.413-0.594,0.413-0.916
		c0-0.321-0.092-2.703-0.092-2.703s-0.046-2.152,0.092-2.152s0.596-0.367,0.55,0.32c0.046,1.191,0.137,2.245,0.183,2.381
		c0.046,0.138,0.046,1.055,0.55,1.055c0.504,0,0.412-1.008,0.275-1.42c-0.092-1.328-0.13-2.818,0.045-3.389
		c0.184-0.596,0.458-1.603,0.504-2.474c0.137-2.153-0.184-3.207,0.091-3.756c0.275-0.549,0.596-1.236,1.1-2.335
		C23.73,3.425,24.584,1.694,25.373,0h-5.012c-0.658,2.33-1.533,4.489-1.666,4.932c-0.275,0.917-0.504,1.42-1.007,1.879
		c0,0-1.787,1.648-2.291,2.152c-0.504,0.504-1.878,2.611-2.153,2.794c-0.274,0.183-1.053,0.504-0.686,0.825
		C12.925,12.902,13.749,12.627,14.116,12.352z"/>
	<path style="fill:#D9D9D9;" d="M30.788,1.359c-0.32,1.832-0.504,3.71-0.688,7.008c0,0-0.045,5.91,0.275,9.299
		c0.321,3.389,1.604,11.542,1.695,12.596c0.092,1.053,0,4.443-0.55,6.641c-0.55,2.199-2.153,5.267-1.511,13.467
		c0.366,4.352,1.328,8.245,1.328,8.245s0.504,1.969,0.183,2.61c-0.32,0.641-0.641,1.328-0.55,2.198
		c0.092,0.87-0.137,1.328-0.412,1.785c-0.275,0.46-0.733,1.879-0.917,2.153c-0.183,0.276-1.511,1.969-2.015,2.566
		c-0.503,0.596-1.832,3.664-0.458,4.168c0.138,0.594,0.138,1.145,0.596,1.191c0.138,0.549,0.275,1.052,0.825,1.145
		c0.321,0.503,0.778,0.549,1.375,0.274c0,0,0.412,1.099,1.877,0.641c0.733-0.091,0.779-1.511,1.008-1.878
		c0.458-0.595,0.688-1.099,0.732-1.739c0.046-0.643-0.091-2.84,0.321-3.757c0.413-0.917,0.596-2.656,0.596-2.931
		s0.596-1.513,0.641-1.97c0.046-0.458,0.092-0.962,0.274-1.191c0.184-0.229,0.229-1.054,0.093-1.832
		c-0.138-0.779-0.275-2.29,0.045-3.803c0.32-1.511,0.916-5.357,1.832-8.151s1.466-4.947,1.374-7.741
		c-0.091-2.794,0.412-4.672,0.871-6.735c0.458-2.06,0.917-4.58,0.961-6c0.046-1.42,1.008-7.099,1.282-8.886
		c0.275-1.787,1.774-9.024,1.821-9.391c0.315,0.216,1.161,0.429,2.32-0.01c0.32,1.877,1.218,7.98,1.218,8.164
		c0,0,1.421,6.733,1.512,8.52c0.092,1.786,0.275,5.176,1.1,7.374c0.825,2.198,0.825,3.985,0.961,4.902
		c0.139,0.915-0.319,4.992,1.236,9.618c1.558,4.627,2.062,8.61,2.062,9.802c0.184,2.794-0.505,2.841-0.366,3.711
		c0.137,0.87,0.732,1.558,0.824,2.016c0,0,0.916,3.938,1.053,4.717c0.138,0.779,0.229,3.16,0.412,4.307
		c0.047,0.825,0.642,1.236,0.871,1.832c0,0,0.595,1.327,1.877,1.008c0.504-0.229,0.596-0.596,0.596-0.596s0.733,0.503,1.375-0.229
		c0.641-0.138,0.87-0.274,0.961-1.053c0.367-0.137,0.459-0.411,0.505-0.917c0.046-0.503,0.046-0.596,0.32-0.686
		c0.274-0.092,0.595-1.375,0.274-2.108c-0.32-0.732-3.022-4.809-3.481-5.543c-0.457-0.731-0.777-1.738-0.87-2.243
		c-0.091-0.504,0-1.374-0.366-2.428c-0.366-1.053-0.55-1.604-0.32-2.383c0,0,2.198-7.189,2.016-11.771
		c-0.229-8.428-2.291-11.36-2.382-12.963c-0.092-1.603,0.046-6,0.412-7.786s1.878-13.008,1.512-16.443
		C59.178,5.309,58.729,2.011,58.342,0H31.063C30.956,0.483,30.86,0.946,30.788,1.359z"/>
</g>
<path d="M36.168,67c-0.072,0-0.146-0.005-0.219-0.016c-0.82-0.12-1.387-0.882-1.267-1.702l7.75-52.916
	c0.12-0.82,0.879-1.384,1.702-1.267c0.819,0.12,1.387,0.882,1.267,1.702l-7.75,52.917C37.542,66.463,36.9,67,36.168,67z"/>
<g>
</g>
<g>
</g>
<g>
</g>
<g>
</g>
<g>
</g>
<g>
</g>
<g>
</g>
<g>
</g>
<g>
</g>
<g>
</g>
<g>
</g>
<g>
</g>
<g>
</g>
<g>
</g>
<g>
</g>
</svg>
