<?xml version="1.0" encoding="iso-8859-1"?>
<!-- Generator: Adobe Illustrator 16.0.4, SVG Export Plug-In . SVG Version: 6.00 Build 0)  -->
<!DOCTYPE svg PUBLIC "-//W3C//DTD SVG 1.1//EN" "http://www.w3.org/Graphics/SVG/1.1/DTD/svg11.dtd">
<svg version="1.1" id="Layer_1" xmlns="http://www.w3.org/2000/svg" xmlns:xlink="http://www.w3.org/1999/xlink" x="0px" y="0px"
	 width="80px" height="80px" viewBox="0 0 80 80" style="enable-background:new 0 0 80 80;" xml:space="preserve">
<path style="fill:#CCCCCC;" d="M76.527,72.075c-2.431-5.056-2.353-6.476-2.431-8.452c-0.078-1.974-1.726-12.792-1.647-19.031
	c0.079-6.24,0.156-13.111-3.057-16.111c-3.216-3.001-6.589-4.029-9.412-5.134c-2.823-1.107-10.35-3.947-11.448-6.793
	C47.434,13.712,48.061,10,48.061,10l-16.156,0.237c0,0,0.471,4.739-0.941,6.99c-1.411,2.251-10.939,5.449-15.881,7.817
	c-4.94,2.37-7.763,5.45-7.763,15.282c0,9.832-1.413,24.283-1.531,25.351c-0.117,1.065-0.824,3.673-2.469,6.634
	C2.153,74.408,1.637,77.572,1.351,80h12.806c0.79-2.263,1.359-4.238,1.359-5.32c0-3.396,0.548-5.922,0.862-7.581
	c0.314-1.66,1.49-6.475,1.725-7.976c0.236-0.632,0.941,1.264,1.178,2.526c0.233,1.262,1.881,4.739,0.233,16.032
	c-0.141,0.803-0.253,1.57-0.353,2.318h41.27c-0.093-0.692-0.19-1.328-0.293-1.844c-0.627-3.16-0.705-8.767-0.55-10.82
	c0.157-2.054,1.256-5.845,1.727-7.027c0.471-1.186,0.392,1.105,0.549,1.814c0.156,0.712,1.254,5.213,1.726,6.792
	c0.469,1.58,0.646,5.146,0.862,6.87c0.257,2.05,0.674,3.217,1.124,4.215h13.074C78.28,77.126,77.804,74.729,76.527,72.075z"/>
<rect style="fill:none;" width="80" height="80"/>
<path d="M48.082,12.457c2.092,0.808,3.477,2.019,3.477,3.675c0,3.408-5.87,4.934-11.688,4.934s-11.688-1.525-11.688-4.934
	c0-1.789,1.617-3.06,3.995-3.862 M32.179,12.27c2.152-0.727,4.929-1.071,7.692-1.071c2.991,0,5.996,0.403,8.211,1.258
	 M31.231,16.132c0.523,0.628,3.477,1.934,8.64,1.934s8.116-1.306,8.64-1.934c-0.523-0.628-3.477-1.934-8.64-1.934
	c-4.216,0-6.958,0.871-8.107,1.532 M31.764,15.73"/>
<path style="fill:#999999;" d="M31.764,15.73c1.149-0.661,3.892-1.532,8.107-1.532c4.697,0,7.559,1.079,8.432,1.747
	c-0.354-1.201-0.449-2.493-0.443-3.566c-2.192-0.799-5.093-1.181-7.988-1.181c-2.764,0-5.54,0.344-7.692,1.071
	c-0.078,0.026-0.148,0.058-0.225,0.085c-0.015,1.096-0.121,2.437-0.459,3.579L31.764,15.73z"/>
<g>
</g>
<g>
</g>
<g>
</g>
<g>
</g>
<g>
</g>
<g>
</g>
<g>
</g>
<g>
</g>
<g>
</g>
<g>
</g>
<g>
</g>
<g>
</g>
<g>
</g>
<g>
</g>
<g>
</g>
</svg>
