<?xml version="1.0" encoding="iso-8859-1"?>
<!-- Generator: Adobe Illustrator 16.0.4, SVG Export Plug-In . SVG Version: 6.00 Build 0)  -->
<!DOCTYPE svg PUBLIC "-//W3C//DTD SVG 1.1//EN" "http://www.w3.org/Graphics/SVG/1.1/DTD/svg11.dtd">
<svg version="1.1" id="Layer_1" xmlns="http://www.w3.org/2000/svg" xmlns:xlink="http://www.w3.org/1999/xlink" x="0px" y="0px"
	 width="80px" height="80px" viewBox="0 0 80 80" style="enable-background:new 0 0 80 80;" xml:space="preserve">
<rect style="fill:none;" width="80" height="80"/>
<path style="fill:#CCCCCC;" d="M56.391,66.555c-0.258-8.514-1.342-12.797-1.703-13.934c-0.361-1.135-0.568-2.166-0.723-4.076
	c0,0-0.31-4.852-0.723-6.916c-0.412-2.063-0.463-5.729-0.361-7.07c0.104-1.342,0.826-3.819,1.136-4.593s0.259,0.722,0.362,1.186
	c0.102,0.465,0.824,3.407,1.135,4.438c0.309,1.032,0.426,3.362,0.567,4.489c0.336,2.658,1.084,3.047,1.6,4.801
	c0.517,1.754,4.851,12.332,5.314,13.211c0.465,0.879,1.911,4.078,2.22,5.471c0.311,1.393-0.051,2.941,0.567,5.162
	c0.104,0.877,0.104,2.475,0.104,2.475s-0.361,3.613,0.257,3.717c0.62,0.105,0.567-0.309,0.673-0.824
	c0.103-0.518,0.206-2.271,0.206-2.684c0-0.414,0.103-0.932,0.361-0.879c0.257,0.051,0.309,0.258,0.257,0.826
	c-0.051,0.568,0,4.49,0,4.49s-0.154,1.445,0.619,1.393c0.773-0.051,0.518-1.393,0.518-1.393l0.103-3.098c0,0-0.208-1.807,0.31-1.807
	c0.515,0,0.412,0.828,0.412,0.828l-0.104,5.365c0,0-0.103,0.775,0.672,0.775c0.773,0,0.722-0.775,0.722-0.879
	c0-0.102-0.153-2.373-0.153-3.303c0-0.928,0.05-2.373,0.05-2.373s0-0.619,0.412-0.518c0.312,0.156,0.361,1.086,0.312,1.602
	c0.103,0.93,0.206,1.807,0.206,1.807s-0.104,2.115,0.672,2.115c0.771,0,0.567-1.652,0.567-1.652s0-2.475-0.053-3.301
	c-0.052-0.828-0.412-2.17-0.515-2.736c-0.104-0.568-0.104-1.031,0.359-0.723c0.465,0.309,1.806,1.857,2.892,1.857
	c1.083,0,0.877-0.98,0.257-0.98c-0.618,0-1.082-1.186-1.6-1.807c-0.515-0.619-2.528-3.25-3.304-3.766
	c-0.773-0.518-1.341-0.879-1.702-2.271c-0.361-1.395-2.116-6.504-3.044-11.922c-0.931-5.418-0.619-8.103-2.221-11.406
	c-1.6-3.303-1.547-4.23-1.6-5.521c-0.051-1.291-1.135-8.36-1.084-12.438c0.053-4.077,0.104-8.567-2.012-10.527
	c-2.115-1.961-4.336-2.633-6.193-3.355c-1.857-0.723-6.811-2.579-7.533-4.438C45.433,0.936,45.327,0.463,45.264,0H34.614
	c-0.093,0.669-0.263,1.33-0.569,1.814c-0.929,1.471-7.199,3.561-10.45,5.108c-3.25,1.549-5.108,3.561-5.108,9.986
	c0,6.425-0.93,15.869-1.007,16.565c-0.077,0.697-0.542,2.4-1.626,4.334c-1.083,1.937-1.316,5.266-1.471,6.658
	c-0.154,1.395-1.083,7.588-1.703,9.961c-0.75,2.875-1.901,5.701-2.064,6.244c-0.31,1.033-0.568,1.6-1.135,2.117
	c0,0-2.013,1.857-2.58,2.426c-0.568,0.566-2.116,2.939-2.425,3.148c-0.31,0.205-1.188,0.566-0.774,0.928
	c0.413,0.361,1.342,0.051,1.754-0.258c0.413-0.309,1.6-1.342,1.6-1.342s0.568-0.465,0.464,0.311
	c-0.103,0.773-0.774,4.127-0.774,5.211s-0.155,3.045,0.62,3.045c0.773,0,0.876-1.289,0.825-1.91
	c-0.052-0.619,0.103-2.941,0.258-3.457s0.723-0.516,0.723,0.104S9.067,76,9.067,76s-0.103,1.496,0.619,1.496
	c0.723,0,0.671-0.723,0.671-1.135c0-0.414-0.051-4.18-0.051-4.18s0.051-1.445,0.361-1.344c0.31,0.104,0.413,0.312,0.413,1.086
	s0.051,3.768,0.051,3.922s0,1.135,0.671,1.135c0.671,0,0.465-0.67,0.465-1.033c0-0.359-0.104-3.043-0.104-3.043
	s-0.052-2.428,0.104-2.428c0.154,0,0.671-0.412,0.618,0.361c0.052,1.344,0.155,2.531,0.207,2.684
	c0.052,0.156,0.052,1.188,0.619,1.188c0.568,0,0.465-1.135,0.311-1.6c-0.104-1.496-0.147-3.176,0.051-3.818
	c0.207-0.672,0.517-1.805,0.568-2.787c0.154-2.424-0.207-3.611,0.103-4.232c0.309-0.619,0.67-1.393,1.238-2.631
	c0.568-1.238,3.406-6.916,3.819-8.516c0.413-1.6,4.077-9.547,4.077-11.768c0-2.218,0.361-3.87,0.567-4.953
	c0.207-1.084,0.98-4.231,1.136-5.212c0.155-0.414,0.619,0.826,0.774,1.65c0.154,0.826,1.238,3.097,0.154,10.478
	c-0.722,4.078-0.515,7.121-0.773,8.619c-0.258,1.496-1.136,4.643-1.497,6.707c-0.361,2.064-0.567,4.182-0.773,7.896
	c0,0-0.052,6.658,0.31,10.479c0.118,1.242,0.35,3.059,0.614,4.979h12.096c0.101-0.619,0.185-1.148,0.242-1.521
	c0.311-2.014,2-10.168,2.051-10.582c0.355,0.244,1.309,0.484,2.615-0.01c0.361,2.113,1.372,8.99,1.372,9.197
	c0,0,0.269,1.275,0.593,2.916h12.075C56.023,75.391,56.66,69.09,56.391,66.555z"/>
<path d="M30.667,69.75c-0.829,0-1.5-0.672-1.5-1.5V8.417c0-4.618,2.418-6.561,2.694-6.768c0.663-0.497,1.603-0.362,2.1,0.302
	c0.491,0.656,0.364,1.584-0.281,2.084c-0.096,0.08-1.512,1.308-1.512,4.382V68.25C32.167,69.078,31.495,69.75,30.667,69.75z"/>
<g>
</g>
<g>
</g>
<g>
</g>
<g>
</g>
<g>
</g>
<g>
</g>
<g>
</g>
<g>
</g>
<g>
</g>
<g>
</g>
<g>
</g>
<g>
</g>
<g>
</g>
<g>
</g>
<g>
</g>
</svg>
